HIERARCHY
ROOT Hips
{
	OFFSET 0.000000 100.481300 0.000000
	CHANNELS 6 Xposition Yposition Zposition Xrotation Yrotation Zrotation
	JOINT Spine
	{
		OFFSET -0.279200 12.230698 -2.892100
		CHANNELS 3 Xrotation Yrotation Zrotation
		JOINT Spine1
		{
			OFFSET -0.325700 14.269203 -3.374200
			CHANNELS 3 Xrotation Yrotation Zrotation
			JOINT Spine2
			{
				OFFSET -0.372300 16.307602 -0.352600
				CHANNELS 3 Xrotation Yrotation Zrotation
				JOINT Neck
				{
					OFFSET -0.418800 17.814194 8.416900
					CHANNELS 3 Xrotation Yrotation Zrotation
					JOINT Head
					{
						OFFSET 0.000000 7.031097 3.806800
						CHANNELS 3 Xrotation Yrotation Zrotation
						JOINT HeadTop_End
						{
							OFFSET 0.000000 24.646606 12.978600
							CHANNELS 3 Xrotation Yrotation Zrotation
							End Site
							{
								OFFSET 0.000000 27.854965 0.000000
							}
						}
					}
				}
				JOINT LeftShoulder
				{
					OFFSET 16.952999 14.495407 -7.737500
					CHANNELS 3 Xrotation Yrotation Zrotation
					JOINT LeftArm
					{
						OFFSET 9.308998 -2.777710 0.208600
						CHANNELS 3 Xrotation Yrotation Zrotation
						JOINT LeftForeArm
						{
							OFFSET 29.972298 0.000000 0.000000
							CHANNELS 3 Xrotation Yrotation Zrotation
							JOINT LeftHand
							{
								OFFSET 26.026505 0.000000 0.000000
								CHANNELS 3 Xrotation Yrotation Zrotation
								JOINT LeftHandThumb1
								{
									OFFSET 12.240501 -7.147949 9.207150
									CHANNELS 3 Xrotation Yrotation Zrotation
									JOINT LeftHandThumb2
									{
										OFFSET 4.138618 -2.389435 2.389433
										CHANNELS 3 Xrotation Yrotation Zrotation
										JOINT LeftHandThumb3
										{
											OFFSET 2.726913 -1.574387 1.574386
											CHANNELS 3 Xrotation Yrotation Zrotation
											JOINT LeftHandThumb4
											{
												OFFSET 3.941010 -2.275345 2.275342
												CHANNELS 3 Xrotation Yrotation Zrotation
												End Site
												{
													OFFSET -0.005798 5.087799 0.009903
												}
											}
										}
									}
								}
								JOINT LeftHandIndex1
								{
									OFFSET 24.424698 -1.985611 5.953459
									CHANNELS 3 Xrotation Yrotation Zrotation
									JOINT LeftHandIndex2
									{
										OFFSET 6.426697 0.000000 0.000000
										CHANNELS 3 Xrotation Yrotation Zrotation
										JOINT LeftHandIndex3
										{
											OFFSET 5.337898 0.000000 0.000000
											CHANNELS 3 Xrotation Yrotation Zrotation
											JOINT LeftHandIndex4
											{
												OFFSET 4.409401 0.000000 0.000000
												CHANNELS 3 Xrotation Yrotation Zrotation
												End Site
												{
													OFFSET 0.000000 4.409363 0.014373
												}
											}
										}
									}
								}
								JOINT LeftHandMiddle1
								{
									OFFSET 23.810104 0.000000 0.000000
									CHANNELS 3 Xrotation Yrotation Zrotation
									JOINT LeftHandMiddle2
									{
										OFFSET 7.176498 0.000000 0.000000
										CHANNELS 3 Xrotation Yrotation Zrotation
										JOINT LeftHandMiddle3
										{
											OFFSET 6.774902 0.000000 0.000000
											CHANNELS 3 Xrotation Yrotation Zrotation
											JOINT LeftHandMiddle4
											{
												OFFSET 5.403328 0.000000 0.000000
												CHANNELS 3 Xrotation Yrotation Zrotation
												End Site
												{
													OFFSET -0.027702 5.403244 0.017414
												}
											}
										}
									}
								}
								JOINT LeftHandRing1
								{
									OFFSET 22.908401 -0.839279 -6.020567
									CHANNELS 3 Xrotation Yrotation Zrotation
									JOINT LeftHandRing2
									{
										OFFSET 6.337502 0.000000 0.000000
										CHANNELS 3 Xrotation Yrotation Zrotation
										JOINT LeftHandRing3
										{
											OFFSET 5.779297 0.000000 0.000000
											CHANNELS 3 Xrotation Yrotation Zrotation
											JOINT LeftHandRing4
											{
												OFFSET 4.965698 0.000000 0.000000
												CHANNELS 3 Xrotation Yrotation Zrotation
												End Site
												{
													OFFSET 0.000000 4.965668 0.016186
												}
											}
										}
									}
								}
								JOINT LeftHandPinky1
								{
									OFFSET 20.037003 -1.530319 -10.950146
									CHANNELS 3 Xrotation Yrotation Zrotation
									JOINT LeftHandPinky2
									{
										OFFSET 5.254700 0.000000 0.000000
										CHANNELS 3 Xrotation Yrotation Zrotation
										JOINT LeftHandPinky3
										{
											OFFSET 4.810204 0.000000 0.000000
											CHANNELS 3 Xrotation Yrotation Zrotation
											JOINT LeftHandPinky4
											{
												OFFSET 3.647202 0.000000 0.000000
												CHANNELS 3 Xrotation Yrotation Zrotation
												End Site
												{
													OFFSET 0.000000 3.647186 0.011889
												}
											}
										}
									}
								}
							}
						}
					}
				}
				JOINT RightShoulder
				{
					OFFSET -15.141001 14.495407 -7.737500
					CHANNELS 3 Xrotation Yrotation Zrotation
					JOINT RightArm
					{
						OFFSET -9.308998 -2.777710 0.208500
						CHANNELS 3 Xrotation Yrotation Zrotation
						JOINT RightForeArm
						{
							OFFSET -29.972300 0.000000 0.000000
							CHANNELS 3 Xrotation Yrotation Zrotation
							JOINT RightHand
							{
								OFFSET -26.026505 0.000000 0.000000
								CHANNELS 3 Xrotation Yrotation Zrotation
								JOINT RightHandThumb1
								{
									OFFSET -12.240601 -7.148026 9.207092
									CHANNELS 3 Xrotation Yrotation Zrotation
									JOINT RightHandThumb2
									{
										OFFSET -4.138618 -2.389435 2.389433
										CHANNELS 3 Xrotation Yrotation Zrotation
										JOINT RightHandThumb3
										{
											OFFSET -2.726974 -1.574417 1.574421
											CHANNELS 3 Xrotation Yrotation Zrotation
											JOINT RightHandThumb4
											{
												OFFSET -3.941010 -2.275345 2.275343
												CHANNELS 3 Xrotation Yrotation Zrotation
												End Site
												{
													OFFSET 0.005814 5.087799 0.009927
												}
											}
										}
									}
								}
								JOINT RightHandIndex1
								{
									OFFSET -24.424698 -1.985657 5.953444
									CHANNELS 3 Xrotation Yrotation Zrotation
									JOINT RightHandIndex2
									{
										OFFSET -6.426697 0.000000 0.000000
										CHANNELS 3 Xrotation Yrotation Zrotation
										JOINT RightHandIndex3
										{
											OFFSET -5.337898 0.000000 0.000000
											CHANNELS 3 Xrotation Yrotation Zrotation
											JOINT RightHandIndex4
											{
												OFFSET -4.409401 0.000000 0.000000
												CHANNELS 3 Xrotation Yrotation Zrotation
												End Site
												{
													OFFSET 0.000000 4.409363 0.014408
												}
											}
										}
									}
								}
								JOINT RightHandMiddle1
								{
									OFFSET -23.810097 0.000000 0.000000
									CHANNELS 3 Xrotation Yrotation Zrotation
									JOINT RightHandMiddle2
									{
										OFFSET -7.176498 0.000000 0.000000
										CHANNELS 3 Xrotation Yrotation Zrotation
										JOINT RightHandMiddle3
										{
											OFFSET -6.774902 0.000000 0.000000
											CHANNELS 3 Xrotation Yrotation Zrotation
											JOINT RightHandMiddle4
											{
												OFFSET -5.403328 0.000000 0.000000
												CHANNELS 3 Xrotation Yrotation Zrotation
												End Site
												{
													OFFSET 0.027702 5.403244 0.017457
												}
											}
										}
									}
								}
								JOINT RightHandRing1
								{
									OFFSET -22.908302 -0.839325 -6.020576
									CHANNELS 3 Xrotation Yrotation Zrotation
									JOINT RightHandRing2
									{
										OFFSET -6.337502 0.000000 0.000000
										CHANNELS 3 Xrotation Yrotation Zrotation
										JOINT RightHandRing3
										{
											OFFSET -5.779297 0.000000 0.000000
											CHANNELS 3 Xrotation Yrotation Zrotation
											JOINT RightHandRing4
											{
												OFFSET -4.965698 0.000000 0.000000
												CHANNELS 3 Xrotation Yrotation Zrotation
												End Site
												{
													OFFSET 0.000000 4.965668 0.016226
												}
											}
										}
									}
								}
								JOINT RightHandPinky1
								{
									OFFSET -20.037003 -1.530334 -10.950259
									CHANNELS 3 Xrotation Yrotation Zrotation
									JOINT RightHandPinky2
									{
										OFFSET -5.254700 0.000000 0.000000
										CHANNELS 3 Xrotation Yrotation Zrotation
										JOINT RightHandPinky3
										{
											OFFSET -4.810204 0.000000 0.000000
											CHANNELS 3 Xrotation Yrotation Zrotation
											JOINT RightHandPinky4
											{
												OFFSET -3.647202 0.000000 0.000000
												CHANNELS 3 Xrotation Yrotation Zrotation
												End Site
												{
													OFFSET 0.000000 3.647186 0.011917
												}
											}
										}
									}
								}
							}
						}
					}
				}
			}
		}
	}
	JOINT LeftUpLeg
	{
		OFFSET 15.427100 -6.655098 0.678600
		CHANNELS 3 Xrotation Yrotation Zrotation
		JOINT LeftLeg
		{
			OFFSET 4.081073 -39.591068 13.024000
			CHANNELS 3 Xrotation Yrotation Zrotation
			JOINT LeftFoot
			{
				OFFSET -4.081074 -37.707932 -15.979700
				CHANNELS 3 Xrotation Yrotation Zrotation
				JOINT LeftToeBase
				{
					OFFSET 5.346399 -15.068900 20.645000
					CHANNELS 3 Xrotation Yrotation Zrotation
					JOINT LeftToe_End
					{
						OFFSET 2.754700 0.931300 11.300900
						CHANNELS 3 Xrotation Yrotation Zrotation
						End Site
						{
							OFFSET 0.000000 11.669021 0.000000
						}
					}
				}
			}
		}
	}
	JOINT RightUpLeg
	{
		OFFSET -15.569500 -6.655098 0.678600
		CHANNELS 3 Xrotation Yrotation Zrotation
		JOINT RightLeg
		{
			OFFSET -4.081825 -39.591045 13.023800
			CHANNELS 3 Xrotation Yrotation Zrotation
			JOINT RightFoot
			{
				OFFSET 4.081824 -37.707954 -15.979600
				CHANNELS 3 Xrotation Yrotation Zrotation
				JOINT RightToeBase
				{
					OFFSET -5.346400 -15.068900 20.645000
					CHANNELS 3 Xrotation Yrotation Zrotation
					JOINT RightToe_End
					{
						OFFSET -2.754700 0.931300 11.300900
						CHANNELS 3 Xrotation Yrotation Zrotation
						End Site
						{
							OFFSET 0.000000 11.669021 0.000000
						}
					}
				}
			}
		}
	}
}
MOTION
Frames: 4
Frame Time: 0.033333
-28.912888 43.016148 29.452759 51.134997 45.353211 11.262998 56.805457 1.996820 -2.028268 5.843562 0.901553 -5.079607 5.939205 0.292758 -5.189094 -23.275046 2.859255 -1.491113 -17.321693 18.876070 -17.980770 -0.000002 0.000001 0.000002 -10.750200 -6.965152 -13.404159 -42.945053 -27.612121 -50.560376 0.004153 -87.354950 0.004135 -93.184428 -20.908573 27.781414 1.783750 2.473986 -11.648392 19.481434 -1.449267 7.626083 11.639759 32.763000 -8.300397 -0.000001 -0.000001 0.000000 -1.946148 -2.627425 -19.029739 1.835250 4.258865 -46.609197 0.082263 0.979373 -9.602879 -0.000003 -0.000001 -0.000000 -0.454523 5.098218 -55.672616 0.998659 3.273334 -33.924723 0.152544 -1.329487 13.089388 -0.000002 -0.000000 -0.000002 -1.081257 2.331888 -33.091566 3.020564 5.122950 -61.026593 0.096358 1.059292 -10.395029 -0.000001 0.000000 -0.000000 2.482764 7.157551 -62.098905 1.423723 3.829206 -40.778753 1.587340 4.010652 -43.172140 0.000003 0.000000 -0.000004 -13.675152 -4.513713 -8.685466 -58.255558 38.908401 63.546393 -0.001171 93.109228 0.001199 -38.983049 -19.786399 19.874010 1.040521 8.192581 8.242735 8.406787 8.914362 -22.526975 -9.333541 -25.710249 -31.225227 -0.000002 0.000002 0.000003 -8.466300 9.176240 34.472071 2.221774 -3.970845 58.442555 1.324462 -3.254884 44.275441 -0.000000 0.000000 -0.000001 -1.636937 0.490515 24.131253 1.351423 -3.282268 44.748401 0.158035 1.204125 -14.952684 -0.000000 0.000000 0.000000 -1.244964 7.425218 7.784072 0.829269 -2.654598 34.691204 0.138132 1.127038 -13.974978 0.000001 0.000000 -0.000001 -5.305556 7.230231 27.353890 1.664124 -3.569669 49.977416 0.527598 -2.154980 27.511201 0.000000 0.000003 0.000001 -99.558046 21.147280 -0.629103 94.372000 0.566207 -7.844158 -27.038733 -18.050831 -15.191859 -17.546696 0.000003 -0.000007 -0.000000 0.000000 0.000000 -17.187741 -10.474174 -17.799924 62.783515 26.889440 20.460236 -32.971031 22.908009 12.347490 28.594681 12.568614 21.023160 -0.000000 0.000000 0.000001 
-29.283194 38.973782 33.461456 52.711165 49.545458 11.058995 57.468877 6.266226 -3.117968 4.508707 1.557648 -5.178226 4.619347 0.978368 -5.270369 -20.858247 2.080976 -1.156449 -12.742187 17.451740 -17.764525 0.000002 -0.000001 -0.000001 -4.102096 -12.724017 -17.151052 -46.782633 -30.815116 -47.510997 0.000429 -96.031046 0.000441 -80.341780 -21.026693 38.481521 0.755129 0.623948 -10.184090 19.312840 -1.982387 7.850522 13.261080 34.985195 -9.275804 0.000002 0.000001 -0.000000 -2.229899 -1.874250 -23.272837 2.508055 4.804726 -55.108661 0.293152 1.831692 -18.183984 0.000002 -0.000000 -0.000000 -0.561656 5.079734 -56.343245 1.266658 3.639577 -38.367877 0.066980 -0.884187 8.661681 -0.000001 0.000000 -0.000000 -0.952270 2.499215 -32.811696 3.542656 5.377907 -66.727376 0.205420 1.539263 -15.202131 -0.000001 0.000000 -0.000000 2.194098 6.945341 -58.976860 1.596829 4.020726 -43.307562 1.768467 4.194912 -45.703323 -0.000000 0.000003 -0.000002 -4.795574 -3.753759 -2.888918 -60.357043 36.276791 62.311208 -0.000532 99.242382 0.000505 -32.722736 -18.741593 27.897161 1.351865 7.705071 7.971063 9.727749 5.617513 -22.192620 -8.713890 -27.607625 -31.359495 0.000000 0.000001 -0.000001 -8.954847 8.712563 36.746800 2.469213 -4.112210 61.952234 1.554171 -3.474543 48.187722 -0.000003 0.000001 -0.000000 -1.642880 -1.294278 34.916822 1.347029 -3.277823 44.671425 0.158012 1.204124 -14.952708 0.000000 -0.000001 -0.000001 -2.561528 6.533725 15.949573 0.866728 -2.707861 35.492139 0.122657 1.062905 -13.164811 -0.000000 0.000001 0.000001 -7.339305 7.578716 34.069776 1.789841 -3.671372 51.967884 0.610920 -2.307793 29.650784 0.000001 0.000000 -0.000001 -101.703614 19.717175 0.503734 99.525179 0.174670 -5.447642 -27.222597 -18.271811 -21.260665 -21.635229 -0.000009 0.000002 -0.000001 0.000000 -0.000000 -14.885325 -11.276102 -16.153114 52.590121 28.627382 22.104213 -15.210174 13.488270 24.995603 27.055158 6.363335 15.658849 0.000000 -0.000000 -0.000002 
-29.186123 34.684914 37.562099 53.015577 54.177952 11.064737 57.246875 8.855215 -4.714016 3.853822 1.750748 -4.216540 3.945284 1.295223 -4.293264 -18.422917 1.677687 -0.504893 -6.784521 16.610364 -16.008421 -0.000000 -0.000000 0.000001 -1.088791 -17.337004 -20.382446 -49.370438 -30.661880 -45.063201 0.000012 -99.583448 0.000002 -73.026518 -16.807204 45.208404 -0.464459 -1.875477 -8.529924 19.140396 -2.540867 8.083776 11.823626 33.000431 -8.390309 0.000001 0.000001 -0.000000 -2.034267 -2.350074 -20.423468 2.792807 4.990557 -58.443087 0.405755 2.144164 -21.429304 0.000002 0.000001 0.000000 -0.628968 5.072273 -56.792774 1.530295 3.949122 -42.350178 0.019732 -0.480831 4.697429 -0.000001 0.000001 0.000000 -0.818018 2.708299 -32.801775 3.963291 5.539179 -71.147068 0.360322 2.024626 -20.179727 0.000001 -0.000001 0.000001 1.737415 6.535479 -52.983492 1.735223 4.162292 -45.247158 1.912634 4.330512 -47.642687 0.000001 0.000001 -0.000002 -0.384506 -3.060993 -0.428613 -61.882176 36.519666 66.483374 -0.000075 101.552216 0.000110 -28.489409 -18.279787 33.009707 1.518634 7.273477 8.330765 9.990956 4.977484 -22.123099 -8.770889 -27.434131 -31.347341 -0.000002 -0.000000 0.000001 -8.027974 6.752950 38.075060 2.489625 -4.122993 62.236492 1.626527 -3.537813 49.370803 -0.000000 -0.000000 0.000001 -0.029609 -3.958394 41.683156 1.364709 -3.295597 44.979965 0.158029 1.204124 -14.952688 0.000003 0.000000 0.000000 -2.516246 2.986190 22.868208 0.933645 -2.799222 36.884924 0.103544 0.977619 -12.091667 0.000001 -0.000000 -0.000001 -8.093037 6.378779 39.144210 1.871212 -3.733454 53.227968 0.662708 -2.396422 30.912791 -0.000002 -0.000000 -0.000000 -102.927461 16.796267 1.563972 104.642316 -0.188160 -3.028295 -25.679117 -18.061800 -28.478339 -28.407068 0.000011 0.000011 0.000001 -0.000001 0.000000 -9.114023 -12.471519 -10.554067 46.116030 25.263196 19.287177 -3.818657 8.787835 30.297749 22.791204 4.031247 12.779836 0.000000 0.000002 -0.000003 
-29.138504 30.554222 42.158020 52.418864 59.919412 11.603899 56.610029 9.593671 -5.798685 3.646275 1.616595 -2.980938 3.708237 1.299710 -3.055485 -16.545969 1.645414 -0.212930 -1.481060 16.446930 -13.810584 -0.000002 0.000000 0.000000 -1.251642 -19.514399 -22.531600 -50.988096 -28.897776 -44.302844 0.000546 -96.550844 0.000528 -72.574762 -13.485164 45.193794 -1.640350 -4.681302 -6.909690 18.999264 -3.008398 8.277626 0.775379 10.856555 -1.957837 0.000001 -0.000000 0.000001 -1.686090 -3.477210 -15.250834 1.885019 4.305234 -47.275779 0.088198 1.013851 -9.944405 -0.000000 0.000000 -0.000000 -0.735720 4.892770 -55.518865 1.738350 4.165385 -45.290226 0.002815 -0.181636 1.772848 -0.000000 -0.000002 -0.000001 -0.694794 2.887354 -32.665762 4.271298 5.634483 -74.310225 0.509087 2.390582 -24.040758 -0.000000 -0.000000 0.000002 1.234336 5.944136 -44.436401 1.854182 4.276631 -46.863615 2.035589 4.439180 -49.250711 -0.000001 0.000001 -0.000001 0.111741 -2.262427 0.137094 -63.155016 37.376209 73.112517 -0.000154 100.574843 0.000171 -26.918433 -19.570165 35.797008 1.502385 6.782160 9.910599 8.863004 7.758002 -22.413553 -9.298873 -25.817212 -31.232485 -0.000003 -0.000001 -0.000002 -7.507643 5.631460 39.073979 2.431484 -4.091942 61.424854 1.617299 -3.529888 49.221048 0.000000 -0.000002 0.000004 1.675713 -5.824652 45.652281 1.408216 -3.338490 45.731692 0.158030 1.204126 -14.952691 -0.000003 -0.000001 -0.000000 -2.198850 0.568801 29.226738 1.006429 -2.893559 38.350450 0.082067 0.871353 -10.760339 0.000001 -0.000002 -0.000001 -7.562921 4.263631 42.956747 1.964403 -3.801171 54.646247 0.717662 -2.485811 32.202887 -0.000000 0.000000 -0.000002 -101.584543 12.623443 2.560840 108.701395 -2.038362 -1.931346 -23.973599 -17.194286 -33.472766 -32.256982 -0.000025 -0.000007 0.000000 -0.000002 -0.000000 -4.209037 -12.384247 -3.274263 40.493128 21.386801 14.541830 8.022820 8.431534 31.868163 15.608280 1.906459 8.922130 -0.000001 0.000001 -0.000001 
